PathFileType	3	(X/Y/Z)	feet_movements_1__view2_aligned.trc
DataRate	CameraRate	NumFrames	NumMarkers	Units	OrigDataRate	OrigDataStartFrame	OrigNumFrames
100.0	100.0	15	19	mm	100.0	182	1840
Frame#	Time	pelvis			neck			head			hip_left			hip_right			knee_left			knee_right			ankle_left			ankle_right			heel_left			heel_right			toe_left			toe_right			shoulder_left			shoulder_right			elbow_left			elbow_right			wrist_left			wrist_right			
		X1	Y1	Z1	X2	Y2	Z2	X3	Y3	Z3	X4	Y4	Z4	X5	Y5	Z5	X6	Y6	Z6	X7	Y7	Z7	X8	Y8	Z8	X9	Y9	Z9	X10	Y10	Z10	X11	Y11	Z11	X12	Y12	Z12	X13	Y13	Z13	X14	Y14	Z14	X15	Y15	Z15	X16	Y16	Z16	X17	Y17	Z17	X18	Y18	Z18	X19	Y19	Z19	
182	1.81000	4.008916	927.092151	341.302476	46.557161	1482.834047	370.139739	47.802012	1613.837360	266.997671	-74.266370	925.911825	335.850909	82.283735	928.272512	346.753962	-180.271600	544.468023	223.889669	73.871678	513.660080	351.313463	-237.098514	171.158052	342.590721	43.817446	126.360754	433.086161	-239.937982	130.852320	383.771899	32.333271	81.055473	469.100985	-240.596525	84.739370	173.281481	74.602984	61.169671	254.987694	-123.994124	1470.297250	396.918572	213.155184	1401.419383	388.236841	-303.924857	1280.882589	265.301111	268.942695	1158.135883	255.265114	-393.824456	1337.694870	43.306958	179.339548	1288.039522	87.489481
183	1.82000	2.105317	927.047496	340.776748	44.747371	1482.544103	369.327071	45.717413	1613.942560	266.763236	-76.212388	925.980971	335.397358	80.422625	928.114050	346.156074	-182.699318	543.830840	225.634240	71.819194	513.654838	350.691344	-240.250070	170.253618	342.876784	41.768084	126.338308	431.835623	-243.195022	129.746025	383.886913	30.259511	81.003313	467.787945	-243.541575	84.572569	173.006754	72.684944	61.236917	253.663894	-126.246463	1470.020166	395.221184	211.969501	1401.367730	386.251315	-301.657432	1278.537728	263.212881	266.259854	1157.499940	253.515631	-378.827434	1335.074578	43.367415	171.860714	1285.584951	87.108540
184	1.83000	0.201718	927.002841	340.251020	42.937582	1482.254159	368.514403	43.632814	1614.047760	266.528800	-78.158407	926.050117	334.943806	78.561515	927.955589	345.558185	-185.127035	543.193657	227.378810	69.766709	513.649595	350.069225	-243.401625	169.349184	343.162847	39.718723	126.315863	430.585086	-246.452063	128.639731	384.001926	28.185752	80.951152	466.474905	-246.486625	84.405768	172.732027	70.766903	61.304163	252.340095	-128.498802	1469.743082	393.523795	210.783818	1401.316076	384.265788	-299.390006	1276.192868	261.124651	263.577014	1156.863996	251.766148	-363.830411	1332.454286	43.427872	164.381880	1283.130381	86.727599
185	1.84000	-1.701881	926.958185	339.725293	41.127793	1481.964215	367.701735	41.548215	1614.152960	266.294365	-80.104425	926.119263	334.490255	76.700404	927.797127	344.960296	-187.554752	542.556474	229.123381	67.714225	513.644352	349.447105	-246.553181	168.444751	343.448910	37.669362	126.293417	429.334549	-249.709104	127.533436	384.116939	26.111993	80.898992	465.161865	-249.431676	84.238967	172.457300	68.848863	61.371408	251.016295	-130.751142	1469.465998	391.826407	209.598135	1401.264423	382.280262	-297.122580	1273.848008	259.036420	260.894173	1156.228053	250.016664	-348.833389	1329.833994	43.488329	156.903046	1280.675810	86.346658
186	1.85000	-3.605480	926.913530	339.199565	39.318003	1481.674270	366.889066	39.463616	1614.258160	266.059929	-82.050443	926.188409	334.036703	74.839294	927.638665	344.362407	-189.982470	541.919291	230.867951	65.661741	513.639109	348.824986	-249.704736	167.540317	343.734973	35.620000	126.270971	428.084012	-252.966144	126.427142	384.231953	24.038234	80.846832	463.848825	-252.376726	84.072166	172.182573	66.930823	61.438654	249.692495	-133.003481	1469.188914	390.129019	208.412452	1401.212769	380.294735	-294.855155	1271.503148	256.948190	258.211332	1155.592109	248.267181	-333.836366	1327.213701	43.548786	149.424212	1278.221240	85.965716
187	1.86000	-5.509080	926.868875	338.673838	37.508214	1481.384326	366.076398	37.379016	1614.363360	265.825494	-83.996462	926.257556	333.583151	72.978184	927.480204	343.764518	-192.410187	541.282108	232.612522	63.609257	513.633866	348.202867	-252.856292	166.635883	344.021036	33.570639	126.248526	426.833475	-256.223185	125.320848	384.346966	21.964475	80.794671	462.535785	-255.321777	83.905365	171.907846	65.012783	61.505900	248.368696	-135.255820	1468.911830	388.431630	207.226769	1401.161116	378.309208	-292.587729	1269.158287	254.859960	255.528492	1154.956166	246.517698	-318.839344	1324.593409	43.609243	141.945378	1275.766669	85.584775
188	1.87000	-7.412679	926.824220	338.148110	35.698425	1481.094382	365.263730	35.294417	1614.468560	265.591059	-85.942480	926.326702	333.129600	71.117073	927.321742	343.166630	-194.837904	540.644925	234.357092	61.556772	513.628624	347.580748	-256.007847	165.731449	344.307099	31.521277	126.226080	425.582938	-259.480225	124.214553	384.461979	19.890716	80.742511	461.222744	-258.266827	83.738564	171.633120	63.094743	61.573146	247.044896	-137.508160	1468.634746	386.734242	206.041086	1401.109463	376.323682	-290.320303	1266.813427	252.771729	252.845651	1154.320222	244.768215	-303.842321	1321.973117	43.669700	134.466543	1273.312099	85.203834
189	1.88000	-9.316278	926.779565	337.622382	33.888635	1480.804438	364.451062	33.209818	1614.573760	265.356623	-87.888498	926.395848	332.676048	69.255963	927.163280	342.568741	-197.265622	540.007742	236.101663	59.504288	513.623381	346.958629	-259.159403	164.827016	344.593162	29.471916	126.203634	424.332401	-262.737266	123.108259	384.576992	17.816957	80.690351	459.909704	-261.211877	83.571763	171.358393	61.176703	61.640391	245.721097	-139.760499	1468.357662	385.036854	204.855403	1401.057809	374.338155	-288.052878	1264.468567	250.683499	250.162810	1153.684278	243.018731	-288.845299	1319.352825	43.730157	126.987709	1270.857528	84.822892
190	1.89000	-11.219877	926.734909	337.096655	32.078846	1480.514493	363.638393	31.125219	1614.678960	265.122188	-89.834517	926.464994	332.222497	67.394853	927.004819	341.970852	-199.693339	539.370558	237.846233	57.451804	513.618138	346.336510	-262.310958	163.922582	344.879225	27.422555	126.181189	423.081864	-265.994307	122.001964	384.692006	15.743197	80.638191	458.596664	-264.156928	83.404962	171.083666	59.258663	61.707637	244.397297	-142.012838	1468.080578	383.339465	203.669720	1401.006156	372.352629	-285.785452	1262.123707	248.595269	247.479969	1153.048335	241.269248	-273.848276	1316.732533	43.790614	119.508875	1268.402958	84.441951
191	1.90000	-13.123476	926.690254	336.570927	30.269057	1480.224549	362.825725	29.040620	1614.784160	264.887753	-91.780535	926.534140	331.768945	65.533742	926.846357	341.372963	-202.121056	538.733375	239.590804	55.399320	513.612895	345.714391	-265.462514	163.018148	345.165287	25.373193	126.158743	421.831327	-269.251347	120.895670	384.807019	13.669438	80.586030	457.283624	-267.101978	83.238161	170.808939	57.340623	61.774883	243.073498	-144.265178	1467.803493	381.642077	202.484037	1400.954502	370.367102	-283.518026	1259.778846	246.507039	244.797129	1152.412391	239.519765	-258.851254	1314.112241	43.851071	112.030041	1265.948387	84.061010
192	1.91000	-15.027075	926.645599	336.045199	28.459267	1479.934605	362.013057	26.956020	1614.889360	264.653317	-93.726554	926.603286	331.315393	63.672632	926.687895	340.775074	-204.548774	538.096192	241.335374	53.346836	513.607652	345.092272	-268.614069	162.113714	345.451350	23.323832	126.136298	420.580790	-272.508388	119.789375	384.922032	11.595679	80.533870	455.970584	-270.047029	83.071360	170.534212	55.422583	61.842128	241.749698	-146.517517	1467.526409	379.944689	201.298354	1400.902849	368.381575	-281.250601	1257.433986	244.418808	242.114288	1151.776448	237.770281	-243.854231	1311.491949	43.911528	104.551207	1263.493817	83.680068
193	1.92000	-15.913905	926.688430	335.893922	27.627274	1479.826317	361.557033	25.927701	1615.035483	264.556123	-94.636292	926.724907	331.224579	62.808688	926.651944	340.563327	-205.758970	537.809043	242.389851	52.303977	513.618734	344.753099	-270.298723	161.630256	345.599503	22.228328	126.096442	419.811172	-274.263647	119.191189	384.970745	10.484221	80.480214	455.165751	-271.572434	82.950860	170.376287	54.369889	61.787250	240.942864	-147.660494	1467.384922	378.890023	200.889213	1401.005067	367.183147	-279.222920	1255.714830	243.405920	240.856522	1151.394496	237.285567	-233.001047	1308.959983	44.439884	100.096117	1261.011401	83.924849
194	1.93000	-16.800735	926.731261	335.742645	26.795281	1479.718029	361.101010	24.899382	1615.181606	264.458930	-95.546031	926.846528	331.133765	61.944743	926.615992	340.351580	-206.969165	537.521893	243.444328	51.261118	513.629816	344.413927	-271.983377	161.146797	345.747656	21.132824	126.056586	419.041555	-276.018907	118.593003	385.019458	9.372762	80.426558	454.360919	-273.097840	82.830359	170.218362	53.317195	61.732372	240.136031	-148.803471	1467.243435	377.835356	200.480072	1401.107286	365.984718	-277.195238	1253.995674	242.393032	239.598756	1151.012544	236.800853	-222.147863	1306.428017	44.968241	95.641027	1258.528985	84.169629
195	1.94000	-17.687566	926.774091	335.591368	25.963287	1479.609742	360.644986	23.871063	1615.327729	264.361736	-96.455769	926.968148	331.042951	61.080799	926.580040	340.139833	-208.179361	537.234743	244.498804	50.218259	513.640897	344.074755	-273.668030	160.663339	345.895808	20.037320	126.016730	418.271937	-277.774167	117.994817	385.068171	8.261303	80.372902	453.556086	-274.623245	82.709859	170.060437	52.264501	61.677494	239.329197	-149.946448	1467.101948	376.780690	200.070930	1401.209504	364.786289	-275.167557	1252.276517	241.380145	238.340991	1150.630593	236.316139	-211.294679	1303.896052	45.496598	91.185937	1256.046569	84.414410
196	1.95000	-18.574396	926.816922	335.440091	25.131294	1479.501454	360.188962	22.842744	1615.473853	264.264542	-97.365508	927.089769	330.952137	60.216854	926.544089	339.928086	-209.389557	536.947594	245.553281	49.175400	513.651979	343.735582	-275.352684	160.179880	346.043961	18.941816	125.976874	417.502320	-279.529426	117.396631	385.116884	7.149845	80.319246	452.751253	-276.148651	82.589359	169.902512	51.211807	61.622616	238.522363	-151.089425	1466.960460	375.726024	199.661789	1401.311722	363.587860	-273.139876	1250.557361	240.367257	237.083225	1150.248641	235.831425	-200.441495	1301.364086	46.024954	86.730847	1253.564154	84.659191
